<svg version="1.1" id="Layer_1" xmlns="http://www.w3.org/2000/svg" xmlns:xlink="http://www.w3.org/1999/xlink" x="0px" y="0px"
	 width="100%" viewBox="0 0 500 500" enable-background="new 0 0 500 500" xml:space="preserve">
<path fill="#FFFFFF" opacity="1.000000" stroke="none" 
	d="
M277.000000,501.000000 
	C184.666687,501.000000 92.833374,501.000000 1.000049,501.000000 
	C1.000033,334.333405 1.000033,167.666794 1.000016,1.000139 
	C167.666565,1.000093 334.333130,1.000093 500.999756,1.000046 
	C500.999847,167.666519 500.999847,334.333038 500.999939,500.999786 
	C426.500000,501.000000 352.000000,501.000000 277.000000,501.000000 
M178.756653,280.330200 
	C178.756653,282.453735 178.756653,284.577240 178.756653,287.501892 
	C187.059738,286.958557 194.922882,287.052765 202.556015,285.774017 
	C210.255005,284.484222 213.229996,279.601837 213.046448,271.751465 
	C212.896667,265.345184 209.289322,261.413483 203.699448,258.654175 
	C209.052734,255.605591 211.321991,251.258011 210.690399,245.567062 
	C210.185135,241.014206 207.706116,237.230957 203.228790,236.610458 
	C194.973282,235.466309 186.586090,235.272369 178.757233,234.718140 
	C178.757233,250.444778 178.757233,264.906586 178.756653,280.330200 
M151.275955,265.257904 
	C152.011520,279.750732 156.742645,292.834595 164.821655,304.856018 
	C167.284256,308.520294 169.972137,310.096039 174.524155,308.318298 
	C155.948471,275.288971 156.078079,242.231354 174.561813,209.214584 
	C168.090652,208.362076 168.093109,208.363815 164.952026,212.792252 
	C153.980392,228.260498 150.226898,245.651398 151.275955,265.257904 
M311.398865,299.963257 
	C326.940247,270.182892 326.309448,241.039917 308.117767,212.493530 
	C305.772858,208.813873 302.991302,207.843124 298.726196,209.339752 
	C317.281799,242.484055 317.098267,275.542694 298.766174,308.437592 
	C306.750702,311.039856 308.024597,304.564392 311.398865,299.963257 
M245.681854,263.821991 
	C245.497559,258.849060 244.996078,253.778564 239.488968,251.855728 
	C232.762131,249.507050 226.488876,250.916046 220.678375,255.581711 
	C221.723892,256.951263 222.597549,258.095703 223.484390,259.257385 
	C227.940277,256.634033 232.558853,253.680038 237.069351,256.908417 
	C239.080475,258.347870 239.152679,262.496277 240.201614,265.711700 
	C236.688553,266.218475 234.546173,266.430450 232.447586,266.857513 
	C230.342896,267.285828 228.183487,267.695007 226.220154,268.521423 
	C220.350067,270.992340 217.759705,277.017303 220.066711,282.385284 
	C222.118393,287.159149 228.020462,289.214691 233.730072,286.953613 
	C235.709854,286.169586 237.497696,284.900879 239.373322,283.853729 
	C242.954620,288.094910 246.108917,288.844238 249.928894,286.190369 
	C250.548218,285.760101 251.138626,284.632690 251.011841,283.966583 
	C250.882431,283.286743 249.939590,282.502319 249.194229,282.267731 
	C248.347504,282.001190 247.324890,282.293396 245.683838,282.378937 
	C245.683838,276.308716 245.683838,270.529480 245.681854,263.821991 
M280.041412,257.179932 
	C283.534851,257.079956 287.497009,255.954178 290.349213,257.257477 
	C292.112823,258.063354 292.187836,262.564606 292.938263,265.124939 
	C287.204010,266.634430 282.372559,267.352478 278.017944,269.196533 
	C272.888947,271.368500 270.981506,277.373108 273.022705,282.282593 
	C274.846680,286.669769 279.978363,288.975189 285.198761,287.390320 
	C287.695618,286.632324 289.984802,285.190369 292.696228,283.902283 
	C294.718964,288.454926 298.372131,288.486389 302.407776,286.426697 
	C303.191742,286.026581 303.575592,284.842590 304.144012,284.020172 
	C303.199799,283.470581 302.295807,282.823334 301.295135,282.410706 
	C300.758270,282.189362 300.055084,282.371399 298.686401,282.371399 
	C298.686401,280.188171 298.717346,278.242462 298.680481,276.298065 
	C298.576477,270.809937 298.639252,265.308929 298.262390,259.838776 
	C297.958954,255.434204 295.461609,252.168427 291.080566,251.301483 
	C284.835388,250.065643 278.905701,251.006577 273.934692,255.476547 
	C276.221039,259.150665 276.221039,259.150665 280.041412,257.179932 
M257.102814,265.499878 
	C257.102814,272.591034 257.102814,279.682159 257.102814,286.793732 
	C259.380127,286.793732 260.987457,286.793732 262.715637,286.793732 
	C262.715637,268.750092 262.715637,250.924698 262.715637,233.269974 
	C260.427673,233.269974 258.510925,233.269974 257.102875,233.269974 
	C257.102875,243.917328 257.102875,254.208649 257.102814,265.499878 
M316.107635,196.135483 
	C318.110077,195.285126 320.079041,194.339005 322.128418,193.622894 
	C323.231750,193.237335 324.472839,193.246033 325.651794,193.076843 
	C325.625183,192.446671 325.598572,191.816498 325.571960,191.186325 
	C323.214600,190.881760 320.537903,189.739014 318.580627,190.484665 
	C316.130066,191.418213 313.135956,193.590637 312.522888,195.818817 
	C312.052307,197.529434 314.829163,200.206924 316.326813,202.338501 
	C316.747498,202.937225 317.970673,202.949158 318.445343,203.537292 
	C319.756744,205.162125 320.867157,206.949158 322.057068,208.672043 
	C319.990540,209.154099 317.937775,209.712234 315.852295,210.089142 
	C314.639679,210.308289 313.374542,210.236694 312.133026,210.295914 
	C312.088715,210.840134 312.044434,211.384354 312.000122,211.928574 
	C313.987915,212.519485 315.960144,213.534637 317.966919,213.608337 
	C321.556885,213.740173 325.068359,213.029465 326.177490,208.787628 
	C327.228119,204.769379 324.812805,202.738602 321.650360,200.987717 
	C319.689514,199.902115 318.016174,198.297180 316.107635,196.135483 
M367.541931,311.947723 
	C363.914001,308.531372 359.861389,308.139954 355.698853,310.682587 
	C351.757965,313.089813 350.228851,319.258667 351.930725,324.615692 
	C353.371582,329.151154 356.487732,331.480988 361.219177,331.341797 
	C366.010468,331.200836 369.427094,328.504852 369.810944,323.928375 
	C370.123291,320.204010 368.686218,316.332947 367.541931,311.947723 
M327.067017,322.158539 
	C326.608246,324.139954 326.729767,326.704071 325.508728,327.919983 
	C324.516205,328.908356 321.681244,328.876465 320.072418,328.248657 
	C316.370056,326.803864 315.024261,320.623474 316.949158,315.869446 
	C318.692932,311.562714 322.013672,311.095459 325.979645,312.079346 
	C327.131226,312.365051 328.312531,312.531006 329.480225,312.751862 
	C325.421570,308.394623 320.336395,308.210449 316.692474,311.377411 
	C312.913452,314.661774 311.873413,321.680695 314.437256,326.597198 
	C316.657867,330.855530 320.775146,332.254272 325.952332,330.728210 
	C327.437653,330.290405 329.083008,330.395386 330.587952,330.257660 
	C330.587952,327.099182 330.587952,323.679962 330.587952,320.469910 
	C327.745087,320.469910 325.308380,320.469910 322.871643,320.469910 
	C322.855804,320.843933 322.839966,321.217957 322.824127,321.592010 
	C323.983521,321.746429 325.142914,321.900848 327.067017,322.158539 
M345.679108,310.519043 
	C342.170197,310.032013 338.661316,309.544983 335.364197,309.087341 
	C335.364197,316.939301 335.364197,323.928101 335.364197,330.916931 
	C335.959503,330.996399 336.554779,331.075867 337.150085,331.155334 
	C337.553497,328.095154 337.956879,325.035004 338.400726,321.667908 
	C345.195099,320.805328 343.059906,331.417328 350.065887,330.851898 
	C349.031586,329.030121 348.262634,327.585083 347.409149,326.191772 
	C345.760101,323.499695 343.977539,321.203796 347.225220,317.960083 
	C348.239990,316.946533 346.681732,313.356842 345.679108,310.519043 
M388.095551,309.872101 
	C387.946228,314.324799 387.868744,318.781494 387.623779,323.228912 
	C387.442261,326.524445 386.248138,329.061859 382.327637,329.097839 
	C378.339691,329.134430 377.225525,326.588837 377.128479,323.258453 
	C377.027008,319.775024 377.204620,316.280884 377.023407,312.803772 
	C376.960602,311.598358 376.188568,310.429901 375.740509,309.244568 
	C375.279999,309.362793 374.819519,309.481018 374.359039,309.599213 
	C374.359039,314.987122 373.837433,320.452606 374.621277,325.723938 
	C374.925598,327.770782 378.071167,330.700745 380.114838,330.867279 
	C382.949677,331.098297 388.276245,329.459351 388.500854,328.000031 
	C389.428192,321.974335 388.832886,315.714294 388.095551,309.872101 
M408.225037,315.637878 
	C406.859070,309.719147 403.664368,308.333466 395.318420,309.882507 
	C395.318420,316.922729 395.318420,323.908966 395.318420,330.895233 
	C395.932220,330.996582 396.546021,331.097900 397.159790,331.199249 
	C397.566589,328.524231 397.973389,325.849243 398.379883,323.176086 
	C406.613098,321.770996 406.904205,321.568756 408.225037,315.637878 
z"/>
<path fill="#1C9ABD" opacity="1.000000" stroke="none" 
	d="
M178.756943,279.849304 
	C178.757233,264.906586 178.757233,250.444778 178.757233,234.718140 
	C186.586090,235.272369 194.973282,235.466309 203.228790,236.610458 
	C207.706116,237.230957 210.185135,241.014206 210.690399,245.567062 
	C211.321991,251.258011 209.052734,255.605591 203.699448,258.654175 
	C209.289322,261.413483 212.896667,265.345184 213.046448,271.751465 
	C213.229996,279.601837 210.255005,284.484222 202.556015,285.774017 
	C194.922882,287.052765 187.059738,286.958557 178.756653,287.501892 
	C178.756653,284.577240 178.756653,282.453735 178.756943,279.849304 
M194.236755,261.764435 
	C191.446777,261.764435 188.656799,261.764435 185.588287,261.764435 
	C185.588287,268.670197 185.588287,275.083496 185.588287,281.459473 
	C197.876999,283.601501 204.893555,280.875885 205.910751,273.690125 
	C206.891373,266.762726 203.436813,262.956299 194.236755,261.764435 
M202.036728,253.469177 
	C204.274017,249.944016 205.233047,245.921738 202.154358,242.865250 
	C197.461594,238.206314 191.331223,240.519791 185.729004,240.245743 
	C185.729004,246.035690 185.729004,251.246613 185.729004,258.009155 
	C191.493256,256.556091 196.496292,255.294922 202.036728,253.469177 
z"/>
<path fill="#1C9ABD" opacity="1.000000" stroke="none" 
	d="
M151.250290,264.783295 
	C150.226898,245.651398 153.980392,228.260498 164.952026,212.792252 
	C168.093109,208.363815 168.090652,208.362076 174.561813,209.214584 
	C156.078079,242.231354 155.948471,275.288971 174.524155,308.318298 
	C169.972137,310.096039 167.284256,308.520294 164.821655,304.856018 
	C156.742645,292.834595 152.011520,279.750732 151.250290,264.783295 
z"/>
<path fill="#1D9ABD" opacity="1.000000" stroke="none" 
	d="
M311.212830,300.278320 
	C308.024597,304.564392 306.750702,311.039856 298.766174,308.437592 
	C317.098267,275.542694 317.281799,242.484055 298.726196,209.339752 
	C302.991302,207.843124 305.772858,208.813873 308.117767,212.493530 
	C326.309448,241.039917 326.940247,270.182892 311.212830,300.278320 
z"/>
<path fill="#239DBF" opacity="1.000000" stroke="none" 
	d="
M245.682846,264.286133 
	C245.683838,270.529480 245.683838,276.308716 245.683838,282.378937 
	C247.324890,282.293396 248.347504,282.001190 249.194229,282.267731 
	C249.939590,282.502319 250.882431,283.286743 251.011841,283.966583 
	C251.138626,284.632690 250.548218,285.760101 249.928894,286.190369 
	C246.108917,288.844238 242.954620,288.094910 239.373260,283.853638 
	C237.497696,284.900879 235.709854,286.169586 233.730072,286.953613 
	C228.020462,289.214691 222.118393,287.159149 220.066711,282.385284 
	C217.759705,277.017303 220.350067,270.992340 226.220154,268.521423 
	C228.183487,267.695007 230.342896,267.285828 232.447586,266.857513 
	C234.546173,266.430450 236.688553,266.218475 240.201614,265.711700 
	C239.152679,262.496277 239.080475,258.347870 237.069351,256.908417 
	C232.558853,253.680038 227.940277,256.634033 223.484390,259.257385 
	C222.597549,258.095703 221.723892,256.951263 220.678375,255.581711 
	C226.488876,250.916046 232.762131,249.507050 239.488968,251.855728 
	C244.996078,253.778564 245.497559,258.849060 245.682846,264.286133 
M235.603210,271.069305 
	C233.223907,271.698303 230.437363,271.772430 228.590958,273.127502 
	C227.044662,274.262299 226.022537,276.854523 225.885345,278.877197 
	C225.807526,280.024231 227.979706,282.345184 229.134415,282.342529 
	C231.558670,282.336975 234.708923,281.842621 236.216995,280.264496 
	C238.070084,278.325317 238.582962,275.085541 239.485992,272.345612 
	C239.515884,272.254913 237.487701,271.485901 235.603210,271.069305 
z"/>
<path fill="#239DBF" opacity="1.000000" stroke="none" 
	d="
M279.696442,257.377869 
	C276.221039,259.150665 276.221039,259.150665 273.934692,255.476547 
	C278.905701,251.006577 284.835388,250.065643 291.080566,251.301483 
	C295.461609,252.168427 297.958954,255.434204 298.262390,259.838776 
	C298.639252,265.308929 298.576477,270.809937 298.680481,276.298065 
	C298.717346,278.242462 298.686401,280.188171 298.686401,282.371399 
	C300.055084,282.371399 300.758270,282.189362 301.295135,282.410706 
	C302.295807,282.823334 303.199799,283.470581 304.144012,284.020172 
	C303.575592,284.842590 303.191742,286.026581 302.407776,286.426697 
	C298.372131,288.486389 294.718964,288.454926 292.696228,283.902283 
	C289.984802,285.190369 287.695618,286.632324 285.198761,287.390320 
	C279.978363,288.975189 274.846680,286.669769 273.022705,282.282593 
	C270.981506,277.373108 272.888947,271.368500 278.017944,269.196533 
	C282.372559,267.352478 287.204010,266.634430 292.938263,265.124939 
	C292.187836,262.564606 292.112823,258.063354 290.349213,257.257477 
	C287.497009,255.954178 283.534851,257.079956 279.696442,257.377869 
M285.068146,282.739594 
	C291.014252,280.346100 292.554077,277.944183 292.237579,270.808594 
	C289.303497,271.228149 286.383423,271.445099 283.565582,272.101196 
	C280.294098,272.862946 278.390442,275.050415 278.646942,278.566925 
	C278.899536,282.029846 281.458496,282.671387 285.068146,282.739594 
z"/>
<path fill="#1D9ABD" opacity="1.000000" stroke="none" 
	d="
M257.102844,264.999939 
	C257.102875,254.208649 257.102875,243.917328 257.102875,233.269974 
	C258.510925,233.269974 260.427673,233.269974 262.715637,233.269974 
	C262.715637,250.924698 262.715637,268.750092 262.715637,286.793732 
	C260.987457,286.793732 259.380127,286.793732 257.102814,286.793732 
	C257.102814,279.682159 257.102814,272.591034 257.102844,264.999939 
z"/>
<path fill="#28A0C1" opacity="1.000000" stroke="none" 
	d="
M316.160706,196.530426 
	C318.016174,198.297180 319.689514,199.902115 321.650360,200.987717 
	C324.812805,202.738602 327.228119,204.769379 326.177490,208.787628 
	C325.068359,213.029465 321.556885,213.740173 317.966919,213.608337 
	C315.960144,213.534637 313.987915,212.519485 312.000122,211.928574 
	C312.044434,211.384354 312.088715,210.840134 312.133026,210.295914 
	C313.374542,210.236694 314.639679,210.308289 315.852295,210.089142 
	C317.937775,209.712234 319.990540,209.154099 322.057068,208.672058 
	C320.867157,206.949158 319.756744,205.162125 318.445343,203.537292 
	C317.970673,202.949158 316.747498,202.937225 316.326813,202.338501 
	C314.829163,200.206924 312.052307,197.529434 312.522888,195.818817 
	C313.135956,193.590637 316.130066,191.418213 318.580627,190.484665 
	C320.537903,189.739014 323.214600,190.881760 325.571960,191.186325 
	C325.598572,191.816498 325.625183,192.446671 325.651794,193.076843 
	C324.472839,193.246033 323.231750,193.237335 322.128418,193.622894 
	C320.079041,194.339005 318.110077,195.285126 316.160706,196.530426 
z"/>
<path fill="#2DA1C2" opacity="1.000000" stroke="none" 
	d="
M367.783417,312.237305 
	C368.686218,316.332947 370.123291,320.204010 369.810944,323.928375 
	C369.427094,328.504852 366.010468,331.200836 361.219177,331.341797 
	C356.487732,331.480988 353.371582,329.151154 351.930725,324.615692 
	C350.228851,319.258667 351.757965,313.089813 355.698853,310.682587 
	C359.861389,308.139954 363.914001,308.531372 367.783417,312.237305 
M354.652954,322.754700 
	C355.292175,326.644226 357.050171,329.397491 361.502899,329.050690 
	C365.444183,328.743713 366.682159,325.920258 367.128540,322.532623 
	C367.963409,316.196533 365.686737,311.881744 361.375824,311.557068 
	C356.650635,311.201233 354.331268,314.714142 354.652954,322.754700 
z"/>
<path fill="#2DA1C2" opacity="1.000000" stroke="none" 
	d="
M326.684662,322.106934 
	C325.142914,321.900848 323.983521,321.746429 322.824127,321.592010 
	C322.839966,321.217957 322.855804,320.843933 322.871643,320.469910 
	C325.308380,320.469910 327.745087,320.469910 330.587952,320.469910 
	C330.587952,323.679962 330.587952,327.099182 330.587952,330.257660 
	C329.083008,330.395386 327.437653,330.290405 325.952332,330.728210 
	C320.775146,332.254272 316.657867,330.855530 314.437256,326.597198 
	C311.873413,321.680695 312.913452,314.661774 316.692474,311.377411 
	C320.336395,308.210449 325.421570,308.394623 329.480225,312.751862 
	C328.312531,312.531006 327.131226,312.365051 325.979645,312.079346 
	C322.013672,311.095459 318.692932,311.562714 316.949158,315.869446 
	C315.024261,320.623474 316.370056,326.803864 320.072418,328.248657 
	C321.681244,328.876465 324.516205,328.908356 325.508728,327.919983 
	C326.729767,326.704071 326.608246,324.139954 326.684662,322.106934 
z"/>
<path fill="#28A0C1" opacity="1.000000" stroke="none" 
	d="
M345.990204,310.732727 
	C346.681732,313.356842 348.239990,316.946533 347.225220,317.960083 
	C343.977539,321.203796 345.760101,323.499695 347.409149,326.191772 
	C348.262634,327.585083 349.031586,329.030121 350.065887,330.851898 
	C343.059906,331.417328 345.195099,320.805328 338.400726,321.667908 
	C337.956879,325.035004 337.553497,328.095154 337.150085,331.155334 
	C336.554779,331.075867 335.959503,330.996399 335.364197,330.916931 
	C335.364197,323.928101 335.364197,316.939301 335.364197,309.087341 
	C338.661316,309.544983 342.170197,310.032013 345.990204,310.732727 
M344.363159,317.885254 
	C345.723511,312.405029 344.270660,311.132019 338.162781,312.508881 
	C338.162781,314.596741 338.162781,316.693176 338.162781,319.318237 
	C340.233215,318.986755 341.963348,318.709778 344.363159,317.885254 
z"/>
<path fill="#28A0C1" opacity="1.000000" stroke="none" 
	d="
M388.446350,309.706238 
	C388.832886,315.714294 389.428192,321.974335 388.500854,328.000031 
	C388.276245,329.459351 382.949677,331.098297 380.114838,330.867279 
	C378.071167,330.700745 374.925598,327.770782 374.621277,325.723938 
	C373.837433,320.452606 374.359039,314.987122 374.359039,309.599213 
	C374.819519,309.481018 375.279999,309.362793 375.740509,309.244568 
	C376.188568,310.429901 376.960602,311.598358 377.023407,312.803772 
	C377.204620,316.280884 377.027008,319.775024 377.128479,323.258453 
	C377.225525,326.588837 378.339691,329.134430 382.327637,329.097839 
	C386.248138,329.061859 387.442261,326.524445 387.623779,323.228912 
	C387.868744,318.781494 387.946228,314.324799 388.446350,309.706238 
z"/>
<path fill="#2DA1C2" opacity="1.000000" stroke="none" 
	d="
M408.224426,315.998566 
	C406.904205,321.568756 406.613098,321.770996 398.379883,323.176086 
	C397.973389,325.849243 397.566589,328.524231 397.159790,331.199249 
	C396.546021,331.097900 395.932220,330.996582 395.318420,330.895233 
	C395.318420,323.908966 395.318420,316.922729 395.318420,309.882507 
	C403.664368,308.333466 406.859070,309.719147 408.224426,315.998566 
M398.559296,312.042786 
	C398.342590,314.702667 398.125885,317.362579 397.890503,320.251770 
	C401.807617,320.300720 404.970215,320.608856 405.120056,316.142090 
	C405.255463,312.106598 402.589600,311.621521 398.559296,312.042786 
z"/>
<path fill="#F8FCFD" opacity="1.000000" stroke="none" 
	d="
M194.685776,261.790527 
	C203.436813,262.956299 206.891373,266.762726 205.910751,273.690125 
	C204.893555,280.875885 197.876999,283.601501 185.588287,281.459473 
	C185.588287,275.083496 185.588287,268.670197 185.588287,261.764435 
	C188.656799,261.764435 191.446777,261.764435 194.685776,261.790527 
z"/>
<path fill="#F3F9FB" opacity="1.000000" stroke="none" 
	d="
M201.768021,253.751465 
	C196.496292,255.294922 191.493256,256.556091 185.729004,258.009155 
	C185.729004,251.246613 185.729004,246.035690 185.729004,240.245743 
	C191.331223,240.519791 197.461594,238.206314 202.154358,242.865250 
	C205.233047,245.921738 204.274017,249.944016 201.768021,253.751465 
z"/>
<path fill="#F6FBFC" opacity="1.000000" stroke="none" 
	d="
M236.011047,271.051208 
	C237.487701,271.485901 239.515884,272.254913 239.485992,272.345612 
	C238.582962,275.085541 238.070084,278.325317 236.216995,280.264496 
	C234.708923,281.842621 231.558670,282.336975 229.134415,282.342529 
	C227.979706,282.345184 225.807526,280.024231 225.885345,278.877197 
	C226.022537,276.854523 227.044662,274.262299 228.590958,273.127502 
	C230.437363,271.772430 233.223907,271.698303 236.011047,271.051208 
z"/>
<path fill="#F6FBFC" opacity="1.000000" stroke="none" 
	d="
M284.684418,282.780426 
	C281.458496,282.671387 278.899536,282.029846 278.646942,278.566925 
	C278.390442,275.050415 280.294098,272.862946 283.565582,272.101196 
	C286.383423,271.445099 289.303497,271.228149 292.237579,270.808594 
	C292.554077,277.944183 291.014252,280.346100 284.684418,282.780426 
z"/>
<path fill="#F8FCFD" opacity="1.000000" stroke="none" 
	d="
M354.571075,322.371155 
	C354.331268,314.714142 356.650635,311.201233 361.375824,311.557068 
	C365.686737,311.881744 367.963409,316.196533 367.128540,322.532623 
	C366.682159,325.920258 365.444183,328.743713 361.502899,329.050690 
	C357.050171,329.397491 355.292175,326.644226 354.571075,322.371155 
z"/>
<path fill="#F8FCFD" opacity="1.000000" stroke="none" 
	d="
M344.028320,318.158997 
	C341.963348,318.709778 340.233215,318.986755 338.162781,319.318237 
	C338.162781,316.693176 338.162781,314.596741 338.162781,312.508881 
	C344.270660,311.132019 345.723511,312.405029 344.028320,318.158997 
z"/>
<path fill="#F8FCFD" opacity="1.000000" stroke="none" 
	d="
M399.003174,311.933899 
	C402.589600,311.621521 405.255463,312.106598 405.120056,316.142090 
	C404.970215,320.608856 401.807617,320.300720 397.890503,320.251770 
	C398.125885,317.362579 398.342590,314.702667 399.003174,311.933899 
z"/>
</svg>